HIERARCHY
ROOT hips
{
	OFFSET -0.003675 0.299928 -0.021708
	CHANNELS 6 Xposition Yposition Zposition Xrotation Yrotation Zrotation
	JOINT LowerBack
	{
		OFFSET 0.000919 0.177588 0.009275
		CHANNELS 3 Xrotation Yrotation Zrotation
		JOINT spine
		{
			OFFSET 0.000919 0.177588 0.009275
			CHANNELS 3 Xrotation Yrotation Zrotation
			JOINT chest
			{
				OFFSET 0.000456 0.100015 0.004638
				CHANNELS 3 Xrotation Yrotation Zrotation
				JOINT neck
				{
					OFFSET 0.000456 0.100015 0.004638
					CHANNELS 3 Xrotation Yrotation Zrotation
					JOINT head
					{
						OFFSET 0.000924 0.155147 0.009274
						CHANNELS 6 Xposition Yposition Zposition Xrotation Yrotation Zrotation
						End Site
						{
							OFFSET 0.000000 0.153400 0.000000
						}
					}
				}
				JOINT shoulder.L
				{
					OFFSET 0.019937 0.078966 0.057518
					CHANNELS 6 Xposition Yposition Zposition Yrotation Xrotation Zrotation
					JOINT upper_arm.L
					{
						OFFSET 0.177024 -0.020465 -0.095062
						CHANNELS 6 Xposition Yposition Zposition Xrotation Yrotation Zrotation
						JOINT forearm.L
						{
							OFFSET 0.247100 -0.135500 -0.061800
							CHANNELS 3 Xrotation Yrotation Zrotation
							JOINT hand.L
							{
								OFFSET 0.217000 -0.143000 0.039300
								CHANNELS 3 Xrotation Yrotation Zrotation
								JOINT palm.01.L
								{
									OFFSET 0.021770 -0.038291 0.012954
									CHANNELS 6 Xposition Yposition Zposition Yrotation Xrotation Zrotation
									JOINT f_index.01.L
									{
										OFFSET 0.053215 -0.044137 0.008236
										CHANNELS 3 Xrotation Yrotation Zrotation
										JOINT f_index.02.L
										{
											OFFSET 0.036108 -0.024723 -0.010656
											CHANNELS 3 Xrotation Yrotation Zrotation
											JOINT f_index.03.L
											{
												OFFSET 0.021342 -0.014948 -0.010846
												CHANNELS 3 Xrotation Yrotation Zrotation
												End Site
												{
													OFFSET 0.015600 -0.009860 -0.013421
												}
											}
										}
									}
									JOINT thumb.01.L
									{
										OFFSET -0.009090 -0.002348 -0.024223
										CHANNELS 6 Xposition Yposition Zposition Xrotation Yrotation Zrotation
										JOINT thumb.02.L
										{
											OFFSET 0.019713 -0.035076 -0.011120
											CHANNELS 3 Xrotation Yrotation Zrotation
											JOINT thumb.03.L
											{
												OFFSET 0.024877 -0.021748 -0.005176
												CHANNELS 3 Xrotation Yrotation Zrotation
												End Site
												{
													OFFSET 0.016125 -0.013029 -0.001569
												}
											}
										}
									}
								}
								JOINT palm.02.L
								{
									OFFSET 0.032823 -0.025104 0.012281
									CHANNELS 6 Xposition Yposition Zposition Yrotation Xrotation Zrotation
									JOINT f_middle.01.L
									{
										OFFSET 0.055723 -0.038469 0.008037
										CHANNELS 3 Xrotation Yrotation Zrotation
										JOINT f_middle.02.L
										{
											OFFSET 0.038167 -0.027473 -0.015582
											CHANNELS 3 Xrotation Yrotation Zrotation
											JOINT f_middle.03.L
											{
												OFFSET 0.021707 -0.016587 -0.017037
												CHANNELS 3 Xrotation Yrotation Zrotation
												End Site
												{
													OFFSET 0.014112 -0.010584 -0.014294
												}
											}
										}
									}
								}
								JOINT palm.03.L
								{
									OFFSET 0.039230 -0.011402 0.008390
									CHANNELS 6 Xposition Yposition Zposition Yrotation Xrotation Zrotation
									JOINT f_ring.01.L
									{
										OFFSET 0.061796 -0.031470 0.007910
										CHANNELS 3 Xrotation Yrotation Zrotation
										JOINT f_ring.02.L
										{
											OFFSET 0.033092 -0.023401 -0.019127
											CHANNELS 3 Xrotation Yrotation Zrotation
											JOINT f_ring.03.L
											{
												OFFSET 0.021392 -0.015362 -0.017824
												CHANNELS 3 Xrotation Yrotation Zrotation
												End Site
												{
													OFFSET 0.008670 -0.007297 -0.014686
												}
											}
										}
									}
								}
								JOINT palm.04.L
								{
									OFFSET 0.043417 0.002450 0.002889
									CHANNELS 6 Xposition Yposition Zposition Yrotation Xrotation Zrotation
									JOINT f_pinky.01.L
									{
										OFFSET 0.069986 -0.026156 0.003627
										CHANNELS 3 Xrotation Yrotation Zrotation
										JOINT f_pinky.02.L
										{
											OFFSET 0.018520 -0.012813 -0.016429
											CHANNELS 3 Xrotation Yrotation Zrotation
											JOINT f_pinky.03.L
											{
												OFFSET 0.013822 -0.009796 -0.014947
												CHANNELS 3 Xrotation Yrotation Zrotation
												End Site
												{
													OFFSET 0.007238 -0.006103 -0.011657
												}
											}
										}
									}
								}
							}
						}
					}
				}
				JOINT shoulder.R
				{
					OFFSET -0.016662 0.078957 0.057696
					CHANNELS 6 Xposition Yposition Zposition Yrotation Xrotation Zrotation
					JOINT upper_arm.R
					{
						OFFSET -0.176972 -0.020537 -0.095144
						CHANNELS 6 Xposition Yposition Zposition Xrotation Yrotation Zrotation
						JOINT forearm.R
						{
							OFFSET -0.247100 -0.135500 -0.061800
							CHANNELS 3 Xrotation Yrotation Zrotation
							JOINT hand.R
							{
								OFFSET -0.217000 -0.143000 0.039300
								CHANNELS 3 Xrotation Yrotation Zrotation
								JOINT palm.01.R
								{
									OFFSET -0.021773 -0.038278 0.012988
									CHANNELS 6 Xposition Yposition Zposition Yrotation Xrotation Zrotation
									JOINT f_index.01.R
									{
										OFFSET -0.053212 -0.044139 0.008249
										CHANNELS 3 Xrotation Yrotation Zrotation
										JOINT f_index.02.R
										{
											OFFSET -0.036049 -0.024835 -0.010634
											CHANNELS 3 Xrotation Yrotation Zrotation
											JOINT f_index.03.R
											{
												OFFSET -0.021371 -0.014881 -0.010866
												CHANNELS 3 Xrotation Yrotation Zrotation
												End Site
												{
													OFFSET -0.015584 -0.009883 -0.013422
												}
											}
										}
									}
									JOINT thumb.01.R
									{
										OFFSET 0.009113 -0.002381 -0.024211
										CHANNELS 6 Xposition Yposition Zposition Xrotation Yrotation Zrotation
										JOINT thumb.02.R
										{
											OFFSET -0.019694 -0.035097 -0.011088
											CHANNELS 3 Xrotation Yrotation Zrotation
											JOINT thumb.03.R
											{
												OFFSET -0.024867 -0.021762 -0.005168
												CHANNELS 3 Xrotation Yrotation Zrotation
												End Site
												{
													OFFSET -0.016120 -0.013036 -0.001565
												}
											}
										}
									}
								}
								JOINT palm.02.R
								{
									OFFSET -0.032828 -0.025095 0.012286
									CHANNELS 6 Xposition Yposition Zposition Yrotation Xrotation Zrotation
									JOINT f_middle.01.R
									{
										OFFSET -0.055721 -0.038472 0.008040
										CHANNELS 3 Xrotation Yrotation Zrotation
										JOINT f_middle.02.R
										{
											OFFSET -0.038101 -0.027593 -0.015557
											CHANNELS 3 Xrotation Yrotation Zrotation
											JOINT f_middle.03.R
											{
												OFFSET -0.021730 -0.016530 -0.017054
												CHANNELS 3 Xrotation Yrotation Zrotation
												End Site
												{
													OFFSET -0.014096 -0.010608 -0.014293
												}
											}
										}
									}
								}
								JOINT palm.03.R
								{
									OFFSET -0.039192 -0.011488 0.008390
									CHANNELS 6 Xposition Yposition Zposition Yrotation Xrotation Zrotation
									JOINT f_ring.01.R
									{
										OFFSET -0.061839 -0.031387 0.007876
										CHANNELS 3 Xrotation Yrotation Zrotation
										JOINT f_ring.02.R
										{
											OFFSET -0.033068 -0.023437 -0.019125
											CHANNELS 3 Xrotation Yrotation Zrotation
											JOINT f_ring.03.R
											{
												OFFSET -0.021371 -0.015393 -0.017822
												CHANNELS 3 Xrotation Yrotation Zrotation
												End Site
												{
													OFFSET -0.008654 -0.007321 -0.014684
												}
											}
										}
									}
								}
								JOINT palm.04.R
								{
									OFFSET -0.043421 0.002443 0.002845
									CHANNELS 6 Xposition Yposition Zposition Yrotation Xrotation Zrotation
									JOINT f_pinky.01.R
									{
										OFFSET -0.069983 -0.026169 0.003599
										CHANNELS 3 Xrotation Yrotation Zrotation
										JOINT f_pinky.02.R
										{
											OFFSET -0.018501 -0.012842 -0.016428
											CHANNELS 3 Xrotation Yrotation Zrotation
											JOINT f_pinky.03.R
											{
												OFFSET -0.013806 -0.009821 -0.014946
												CHANNELS 3 Xrotation Yrotation Zrotation
												End Site
												{
													OFFSET -0.007226 -0.006121 -0.011655
												}
											}
										}
									}
								}
							}
						}
					}
				}
			}
		}
	}
	JOINT pelvis.L
	{
		OFFSET 0.000000 0.000000 0.000000
		CHANNELS 6 Xposition Yposition Zposition Xrotation Yrotation Zrotation
		JOINT thigh.L
		{
			OFFSET 0.101675 0.001054 -0.000000
			CHANNELS 3 Xrotation Yrotation Zrotation
			JOINT shin.L
			{
				OFFSET 0.000000 -0.534800 0.041000
				CHANNELS 3 Xrotation Yrotation Zrotation
				JOINT foot.L
				{
					OFFSET 0.000000 -0.452000 -0.044800
					CHANNELS 3 Xrotation Yrotation Zrotation
					JOINT toe.L
					{
						OFFSET -0.000000 -0.068500 0.109600
						CHANNELS 3 Xrotation Yrotation Zrotation
						End Site
						{
							OFFSET -0.000000 0.000000 0.067200
						}
					}
				}
				JOINT heel.L
				{
					OFFSET 0.000000 -0.452000 -0.044800
					CHANNELS 3 Xrotation Yrotation Zrotation
					JOINT heel.02.L
					{
						OFFSET -0.038000 -0.085200 0.016200
						CHANNELS 6 Xposition Yposition Zposition Xrotation Yrotation Zrotation
						End Site
						{
							OFFSET 0.080000 -0.000000 0.000000
						}
					}
				}
			}
		}
	}
	JOINT pelvis.R
	{
		OFFSET 0.000000 0.000000 0.000000
		CHANNELS 6 Xposition Yposition Zposition Xrotation Yrotation Zrotation
		JOINT thigh.R
		{
			OFFSET -0.094325 0.001054 0.000000
			CHANNELS 3 Xrotation Yrotation Zrotation
			JOINT shin.R
			{
				OFFSET 0.000000 -0.534800 0.041000
				CHANNELS 3 Xrotation Yrotation Zrotation
				JOINT foot.R
				{
					OFFSET 0.000000 -0.452000 -0.044800
					CHANNELS 3 Xrotation Yrotation Zrotation
					JOINT toe.R
					{
						OFFSET -0.000000 -0.068500 0.109600
						CHANNELS 3 Xrotation Yrotation Zrotation
						End Site
						{
							OFFSET -0.000000 0.000000 0.067200
						}
					}
				}
				JOINT heel.R
				{
					OFFSET 0.000000 -0.452000 -0.044800
					CHANNELS 3 Xrotation Yrotation Zrotation
					JOINT heel.02.R
					{
						OFFSET 0.038000 -0.085200 0.016200
						CHANNELS 6 Xposition Yposition Zposition Xrotation Yrotation Zrotation
						End Site
						{
							OFFSET -0.080000 0.000000 -0.000000
						}
					}
				}
			}
		}
	}
}
MOTION
Frames: 4
Frame Time: 0.041667
-0.017186 0.228271 -0.034685 -7.949725 -8.846633 89.071220 0.000001 0.000001 0.000000 0.000000 -0.000001 0.000000 0.000000 -0.000001 -0.000000 -0.000000 -0.000001 -0.000000 0.000924 0.155147 0.009274 -2.633839 0.006000 -13.018820 0.019937 0.078966 0.057518 -19.400305 1.205378 31.485758 0.177025 -0.020465 -0.095062 -3.356143 14.481394 -68.176011 1.539836 0.129640 -8.220676 -0.000002 -0.000001 -0.000002 0.021770 -0.038291 0.012954 -0.000000 -0.000000 -0.000004 -0.000001 -0.000002 -0.000002 -0.000000 -0.000001 0.000001 -0.000001 0.000003 -0.000002 -0.009090 -0.002348 -0.024223 -0.000000 -0.000002 -0.000003 0.000001 0.000000 -0.000000 0.000000 0.000000 -0.000004 0.032823 -0.025104 0.012281 -0.000001 0.000001 0.000002 0.000003 0.000000 -0.000005 -0.000000 0.000002 0.000004 -0.000001 0.000003 0.000001 0.039230 -0.011402 0.008390 -0.000001 0.000001 0.000003 0.000000 -0.000002 0.000003 0.000001 0.000006 0.000005 0.000003 0.000001 0.000003 0.043417 0.002450 0.002889 -0.000000 -0.000000 -0.000003 -0.000004 -0.000006 -0.000000 0.000001 -0.000004 -0.000005 -0.000001 -0.000001 0.000001 -0.016662 0.078957 0.057696 -20.441626 5.422763 -27.454760 -0.176972 -0.020537 -0.095144 1.602344 -12.008799 51.033435 -14.680139 13.812423 17.552533 0.000003 0.000003 0.000003 -0.021773 -0.038278 0.012988 0.000002 -0.000000 -0.000003 -0.000003 0.000005 -0.000001 0.000000 -0.000004 0.000000 0.000002 -0.000006 -0.000001 0.009114 -0.002381 -0.024211 0.000001 -0.000001 -0.000001 0.000002 -0.000003 0.000000 -0.000002 0.000002 -0.000003 -0.032829 -0.025095 0.012286 0.000003 -0.000001 -0.000001 0.000001 0.000000 0.000001 -0.000002 -0.000002 -0.000004 -0.000003 -0.000003 -0.000006 -0.039192 -0.011488 0.008390 0.000002 -0.000001 0.000005 0.000007 -0.000001 0.000000 -0.000001 -0.000002 0.000002 -0.000000 0.000001 0.000000 -0.043421 0.002443 0.002845 -0.000001 0.000004 0.000002 -0.000002 0.000008 -0.000001 0.000000 -0.000004 0.000005 -0.000002 -0.000001 0.000001 -0.000000 0.000000 0.000000 -1.887139 0.150889 -2.754187 -39.971377 -0.298999 -1.223961 49.195404 -0.749451 7.586069 -0.000003 -0.000000 0.000000 -0.000003 -0.000001 0.000000 0.000002 -0.000001 -0.000000 -0.038000 -0.085200 0.016200 0.000007 -0.000002 -0.000000 -0.000000 0.000000 0.000000 -1.841619 0.149169 -1.520125 -52.263600 0.539301 3.221815 71.476072 0.414334 -4.182438 0.000002 -0.000000 0.000001 -0.000000 -0.000001 -0.000001 0.000003 -0.000001 0.000001 0.038000 -0.085200 0.016200 0.000000 0.000001 -0.000000 
-0.017255 0.228469 -0.033927 -14.333736 -8.459634 88.559420 0.000000 -0.000001 -0.000000 0.000001 -0.000001 -0.000000 0.000000 -0.000001 -0.000000 0.000001 -0.000001 -0.000000 0.000924 0.155147 0.009274 -1.632299 0.000722 -14.995679 0.019937 0.078966 0.057518 -24.116875 1.419948 32.182117 0.177025 -0.020465 -0.095062 -5.099431 14.764526 -66.219709 0.801653 -0.839076 -9.299816 -0.000003 0.000000 -0.000001 0.021770 -0.038291 0.012954 0.000004 0.000001 0.000001 -0.000001 0.000001 0.000003 -0.000002 -0.000002 0.000006 -0.000000 0.000003 -0.000003 -0.009090 -0.002348 -0.024223 0.000001 0.000000 -0.000001 -0.000001 0.000000 -0.000004 0.000001 0.000001 -0.000001 0.032823 -0.025104 0.012281 0.000003 0.000001 0.000005 -0.000001 -0.000001 -0.000003 -0.000002 -0.000003 0.000003 0.000002 0.000000 -0.000001 0.039230 -0.011402 0.008390 0.000003 0.000002 0.000003 0.000003 0.000001 -0.000005 -0.000003 0.000004 0.000001 0.000002 -0.000004 0.000003 0.043417 0.002450 0.002889 0.000003 0.000002 -0.000003 -0.000003 -0.000004 -0.000004 0.000004 -0.000003 -0.000004 0.000002 -0.000003 -0.000005 -0.016662 0.078957 0.057696 -23.752469 5.711944 -25.481441 -0.176972 -0.020537 -0.095144 1.449162 -11.920165 49.162254 -9.324656 10.560449 13.643670 -0.000001 0.000001 0.000000 -0.021773 -0.038278 0.012988 0.000001 -0.000000 -0.000003 0.000001 0.000004 0.000002 -0.000000 -0.000000 -0.000004 -0.000006 0.000003 -0.000006 0.009113 -0.002381 -0.024212 0.000002 -0.000001 0.000001 0.000001 -0.000003 -0.000002 0.000001 -0.000001 -0.000003 -0.032828 -0.025095 0.012286 0.000001 0.000001 -0.000003 0.000001 0.000002 -0.000001 0.000002 0.000000 0.000001 -0.000003 0.000006 -0.000007 -0.039192 -0.011488 0.008390 -0.000002 0.000000 0.000001 0.000001 0.000004 -0.000007 0.000003 -0.000001 -0.000002 -0.000001 -0.000001 -0.000002 -0.043421 0.002443 0.002845 -0.000002 -0.000001 0.000000 -0.000003 0.000007 -0.000003 0.000003 -0.000003 0.000002 -0.000003 0.000000 -0.000001 -0.000000 0.000000 -0.000000 -1.912518 0.286340 -4.318091 -38.220116 -0.522267 -4.224714 43.931230 -1.100659 11.179067 -0.000002 0.000001 0.000000 -0.000002 -0.000000 0.000000 0.000002 0.000001 0.000000 -0.038000 -0.085200 0.016200 -0.000001 0.000000 0.000000 -0.000000 0.000000 -0.000000 -1.861828 0.283041 -3.084151 -50.439212 0.243197 -0.561184 69.842468 -0.207575 2.096378 0.000000 0.000001 0.000001 0.000002 -0.000000 -0.000001 0.000009 0.000000 0.000000 0.038000 -0.085200 0.016200 0.000002 0.000001 -0.000000 
-0.020692 0.228170 -0.032684 -1.084410 -6.886963 91.771193 -0.000000 0.000000 -0.000000 0.000001 0.000000 -0.000000 0.000001 0.000000 0.000000 0.000000 0.000000 0.000000 0.000924 0.155147 0.009274 -19.237764 0.048600 -22.648028 0.019937 0.078966 0.057518 -4.511306 0.397195 27.027520 0.177024 -0.020465 -0.095062 -12.998664 13.011866 -53.013746 -3.263553 -7.455525 12.146049 0.000001 0.000002 0.000003 0.021770 -0.038291 0.012954 -0.000001 -0.000001 -0.000002 -0.000004 0.000000 -0.000000 -0.000000 -0.000000 0.000005 0.000002 0.000003 -0.000002 -0.009090 -0.002348 -0.024224 -0.000000 -0.000001 -0.000001 -0.000000 -0.000001 0.000005 0.000001 0.000000 -0.000004 0.032823 -0.025104 0.012281 -0.000002 -0.000003 0.000002 0.000000 -0.000004 -0.000005 -0.000002 -0.000003 0.000003 -0.000006 0.000000 -0.000001 0.039230 -0.011402 0.008390 0.000000 0.000000 0.000001 -0.000001 0.000000 -0.000000 0.000001 0.000003 0.000001 0.000006 -0.000003 0.000003 0.043417 0.002450 0.002889 -0.000002 0.000001 -0.000003 0.000005 -0.000003 -0.000002 0.000004 -0.000006 0.000002 -0.000001 -0.000002 -0.000003 -0.016662 0.078956 0.057696 -1.834284 1.990997 -28.960982 -0.176972 -0.020537 -0.095144 -5.387946 -11.337802 54.579502 -18.201206 14.473931 24.760614 -0.000003 -0.000001 -0.000001 -0.021773 -0.038278 0.012988 0.000001 -0.000002 -0.000003 -0.000005 0.000006 0.000006 -0.000001 -0.000003 -0.000008 -0.000003 0.000002 -0.000003 0.009114 -0.002381 -0.024211 -0.000003 0.000002 0.000006 -0.000000 0.000001 0.000002 0.000000 0.000002 -0.000001 -0.032828 -0.025095 0.012286 0.000002 -0.000000 -0.000001 -0.000001 0.000001 -0.000003 -0.000001 0.000002 -0.000004 -0.000001 0.000006 -0.000003 -0.039192 -0.011488 0.008390 0.000001 -0.000003 0.000001 -0.000000 0.000006 -0.000003 -0.000001 -0.000000 -0.000002 -0.000003 0.000002 0.000003 -0.043421 0.002443 0.002844 -0.000002 -0.000001 -0.000003 -0.000003 0.000003 0.000003 0.000001 -0.000004 -0.000002 -0.000000 -0.000001 0.000004 -0.000000 0.000000 -0.000000 -1.881051 -0.386716 3.543737 -37.883788 -0.145964 0.704056 79.777340 -0.348797 3.523568 -0.000003 0.000001 0.000001 0.000001 0.000001 0.000001 -0.000002 -0.000000 0.000000 -0.038000 -0.085200 0.016200 0.000003 -0.000000 0.000000 -0.000000 0.000000 -0.000000 -1.853347 -0.384708 4.778108 -45.382676 0.454401 2.402260 73.713970 0.235362 -2.373592 0.000000 0.000000 -0.000000 -0.000003 -0.000000 -0.000000 0.000002 0.000000 -0.000001 0.038000 -0.085200 0.016200 0.000000 0.000001 0.000000 
-0.023780 0.255303 -0.035139 49.290422 32.674300 75.068096 -0.000001 -0.000001 0.000001 -0.000001 -0.000002 0.000003 0.000002 0.000002 -0.000000 0.000001 0.000001 -0.000002 0.000924 0.155148 0.009274 -21.896547 0.089060 -4.822821 0.019937 0.078966 0.057518 -1.530009 -3.862628 20.731480 0.177025 -0.020465 -0.095062 -23.368123 19.184386 -78.692105 -4.765422 -6.321335 -18.528970 -0.000002 0.000001 -0.000001 0.021770 -0.038291 0.012954 0.000001 0.000001 0.000001 -0.000003 0.000001 0.000003 0.000003 0.000001 0.000008 0.000002 0.000003 -0.000004 -0.009090 -0.002348 -0.024223 -0.000008 0.000000 0.000003 -0.000001 -0.000001 0.000003 0.000000 0.000001 0.000003 0.032823 -0.025104 0.012281 -0.000001 0.000003 0.000005 0.000003 0.000000 -0.000002 -0.000005 0.000002 0.000008 0.000002 -0.000001 -0.000000 0.039230 -0.011402 0.008390 0.000001 -0.000000 0.000004 -0.000002 0.000000 0.000001 -0.000001 0.000003 0.000003 0.000004 -0.000001 0.000003 0.043417 0.002450 0.002889 -0.000001 0.000001 -0.000002 -0.000003 -0.000003 -0.000000 0.000000 0.000006 -0.000001 0.000000 0.000000 0.000002 -0.016662 0.078957 0.057696 15.784731 -3.568747 -24.953169 -0.176972 -0.020537 -0.095144 -37.768316 -14.349912 57.176511 1.332683 2.381231 20.324403 0.000002 -0.000001 0.000000 -0.021773 -0.038278 0.012988 0.000001 -0.000000 -0.000003 -0.000004 -0.000001 0.000000 0.000001 0.000001 -0.000004 0.000002 0.000000 0.000004 0.009114 -0.002381 -0.024212 -0.000000 -0.000003 0.000000 -0.000001 -0.000003 0.000000 0.000002 0.000001 -0.000004 -0.032828 -0.025095 0.012286 -0.000001 -0.000002 -0.000003 0.000000 0.000003 0.000002 -0.000000 0.000002 -0.000002 0.000002 0.000003 -0.000006 -0.039192 -0.011488 0.008390 0.000000 0.000000 0.000001 0.000002 0.000006 -0.000003 0.000006 -0.000001 0.000003 -0.000002 0.000005 -0.000004 -0.043421 0.002443 0.002845 -0.000000 -0.000001 -0.000001 -0.000001 0.000003 0.000001 -0.000001 0.000002 -0.000000 -0.000002 -0.000001 -0.000000 0.000000 0.000000 -0.000000 -2.336816 0.829628 -9.772683 -91.176537 -0.451561 -1.708794 72.989601 1.369884 -13.959315 -0.000003 0.000001 -0.000004 -0.000002 0.000002 -0.000002 -0.000002 -0.000001 -0.000006 -0.038000 -0.085200 0.016200 0.000001 -0.000002 -0.000001 0.000000 0.000000 -0.000000 -2.255351 0.816470 -8.539669 -103.762007 0.277890 -1.059519 73.338050 0.395426 -3.991117 0.000000 0.000002 0.000003 -0.000001 -0.000004 0.000001 0.000007 0.000004 0.000001 0.038000 -0.085200 0.016200 0.000000 0.000002 0.000000 
